<svg width="21" height="20" viewBox="0 0 21 20" fill="none" xmlns="http://www.w3.org/2000/svg">
<path fill-rule="evenodd" clip-rule="evenodd" d="M0.111084 10C0.111084 4.579 4.69008 0 10.1111 0C15.5321 0 20.1111 4.579 20.1111 10C20.1111 13.19 18.5191 16.078 16.1111 17.924V18H16.0091C14.3411 19.245 12.2981 20 10.1111 20C7.92408 20 5.88108 19.245 4.21308 18H4.11108V17.924C1.70308 16.078 0.111084 13.189 0.111084 10ZM7.23455 15.236C6.70262 15.6639 6.33245 16.2604 6.18508 16.927C7.35308 17.604 8.69508 18 10.1111 18C11.5271 18 12.8691 17.604 14.0371 16.927C13.8896 16.2605 13.5193 15.6641 12.9874 15.2362C12.4555 14.8083 11.7937 14.5744 11.1111 14.573H9.11108C8.42838 14.5742 7.76648 14.808 7.23455 15.236ZM13.8788 13.4117C14.6988 13.9574 15.3396 14.7329 15.7211 15.641C17.1881 14.182 18.1111 12.176 18.1111 10C18.1111 5.663 14.4481 2 10.1111 2C5.77408 2 2.11108 5.663 2.11108 10C2.11108 12.176 3.03408 14.182 4.50108 15.641C4.88253 14.7329 5.52335 13.9574 6.34335 13.4117C7.16335 12.866 8.12609 12.5742 9.11108 12.573H11.1111C12.0961 12.5742 13.0588 12.866 13.8788 13.4117ZM6.11108 8C6.11108 5.72 7.83108 4 10.1111 4C12.3911 4 14.1111 5.72 14.1111 8C14.1111 10.28 12.3911 12 10.1111 12C7.83108 12 6.11108 10.28 6.11108 8ZM8.11108 8C8.11108 9.178 8.93308 10 10.1111 10C11.2891 10 12.1111 9.178 12.1111 8C12.1111 6.822 11.2891 6 10.1111 6C8.93308 6 8.11108 6.822 8.11108 8Z" fill="#9B9B9B"/>
</svg>
